<svg width="171" height="25" viewBox="0 0 171 25" fill="none" xmlns="http://www.w3.org/2000/svg">
<path d="M0.24 24V0.959999H4.592V11.584L13.36 0.959999H18.672L9.04 12.32L19.28 24H13.776L4.592 13.504V24H0.24ZM30.8973 24.48C29.0413 24.48 27.4093 24.1067 26.0013 23.36C24.5933 22.6027 23.4946 21.5413 22.7053 20.176C21.9159 18.8107 21.5213 17.2053 21.5213 15.36V0.991999L25.9373 0.959999V15.328C25.9373 16.0853 26.0653 16.7733 26.3213 17.392C26.5773 18.0107 26.9293 18.544 27.3773 18.992C27.8359 19.44 28.3639 19.7867 28.9613 20.032C29.5693 20.2667 30.2146 20.384 30.8973 20.384C31.6013 20.384 32.2519 20.2613 32.8493 20.016C33.4573 19.7707 33.9853 19.424 34.4333 18.976C34.8813 18.528 35.2279 17.9947 35.4733 17.376C35.7293 16.7573 35.8573 16.0747 35.8573 15.328V0.959999H40.2733V15.36C40.2733 17.2053 39.8786 18.8107 39.0893 20.176C38.2999 21.5413 37.2013 22.6027 35.7933 23.36C34.3853 24.1067 32.7533 24.48 30.8973 24.48ZM52.4263 21.44V18.704H55.1623V21.44H52.4263ZM52.4423 12.016V9.28H55.1783V12.016H52.4423ZM65.515 24L73.451 0.959999H76.571L84.507 24H82.059L74.523 2.272H75.451L67.963 24H65.515ZM69.051 18.416V16.208H80.955V18.416H69.051ZM96.0033 24.48C94.3819 24.48 92.9206 24.1973 91.6193 23.632C90.3179 23.0667 89.2086 22.2613 88.2913 21.216C87.3846 20.1707 86.6913 18.912 86.2113 17.44C85.7313 15.9573 85.4913 14.304 85.4913 12.48C85.4913 10.0693 85.9073 7.968 86.7393 6.176C87.5819 4.37333 88.7873 2.976 90.3553 1.984C91.9233 0.991999 93.8059 0.495998 96.0033 0.495998C98.4566 0.495998 100.451 1.072 101.987 2.224C103.534 3.36533 104.611 4.90133 105.219 6.832L102.851 7.408C102.35 6 101.523 4.87467 100.371 4.032C99.2299 3.18933 97.8059 2.768 96.0993 2.768C94.2966 2.75733 92.7979 3.16267 91.6033 3.984C90.4086 4.79467 89.5073 5.936 88.8993 7.408C88.3019 8.86933 87.9979 10.56 87.9873 12.48C87.9766 14.4 88.2699 16.0907 88.8673 17.552C89.4753 19.0027 90.3819 20.144 91.5873 20.976C92.7926 21.7973 94.2966 22.2133 96.0993 22.224C97.7526 22.224 99.1179 21.904 100.195 21.264C101.273 20.624 102.089 19.7067 102.643 18.512C103.209 17.3173 103.529 15.904 103.603 14.272H98.2913V12.256H106.067C106.099 12.5013 106.115 12.7627 106.115 13.04C106.126 13.3067 106.131 13.4987 106.131 13.616C106.131 15.696 105.758 17.5573 105.011 19.2C104.265 20.832 103.139 22.1227 101.635 23.072C100.142 24.0107 98.2646 24.48 96.0033 24.48ZM118.662 24.48C116.368 24.48 114.432 23.9733 112.854 22.96C111.275 21.936 110.08 20.5227 109.27 18.72C108.459 16.9173 108.054 14.8373 108.054 12.48C108.054 10.1227 108.459 8.04267 109.27 6.24C110.08 4.43733 111.275 3.02933 112.854 2.016C114.432 0.991999 116.368 0.48 118.662 0.48C120.966 0.48 122.902 0.991999 124.47 2.016C126.048 3.02933 127.243 4.43733 128.054 6.24C128.875 8.04267 129.286 10.1227 129.286 12.48C129.286 14.8373 128.875 16.9173 128.054 18.72C127.243 20.5227 126.048 21.936 124.47 22.96C122.902 23.9733 120.966 24.48 118.662 24.48ZM118.662 22.224C120.464 22.224 121.968 21.8133 123.174 20.992C124.379 20.1707 125.28 19.0293 125.878 17.568C126.486 16.096 126.79 14.4 126.79 12.48C126.79 10.56 126.486 8.86933 125.878 7.408C125.28 5.94667 124.379 4.80533 123.174 3.984C121.968 3.16267 120.464 2.74667 118.662 2.736C116.859 2.736 115.36 3.14666 114.166 3.968C112.971 4.78933 112.07 5.936 111.462 7.408C110.864 8.86933 110.56 10.56 110.55 12.48C110.539 14.4 110.832 16.0907 111.43 17.552C112.038 19.0027 112.944 20.144 114.15 20.976C115.355 21.7973 116.859 22.2133 118.662 22.224ZM132.49 24V0.959999H141.386C141.61 0.959999 141.861 0.970666 142.138 0.991999C142.426 1.00267 142.714 1.03467 143.002 1.088C144.207 1.26933 145.226 1.69067 146.058 2.352C146.901 3.00267 147.535 3.824 147.962 4.816C148.399 5.808 148.618 6.90667 148.618 8.112C148.618 9.85067 148.159 11.36 147.242 12.64C146.325 13.92 145.013 14.7253 143.306 15.056L142.49 15.248H134.842V24H132.49ZM146.442 24L141.898 14.624L144.154 13.76L149.146 24H146.442ZM134.842 13.008H141.322C141.514 13.008 141.738 12.9973 141.994 12.976C142.25 12.9547 142.501 12.9173 142.746 12.864C143.535 12.6933 144.181 12.368 144.682 11.888C145.194 11.408 145.573 10.8373 145.818 10.176C146.074 9.51467 146.202 8.82667 146.202 8.112C146.202 7.39733 146.074 6.70933 145.818 6.048C145.573 5.376 145.194 4.8 144.682 4.32C144.181 3.84 143.535 3.51467 142.746 3.344C142.501 3.29067 142.25 3.25867 141.994 3.248C141.738 3.22667 141.514 3.216 141.322 3.216H134.842V13.008ZM151.078 24L159.014 0.959999H162.134L170.07 24H167.622L160.086 2.272H161.014L153.526 24H151.078ZM154.614 18.416V16.208H166.517V18.416H154.614Z" fill="black"/>
</svg>
